<svg width="109" height="22" viewBox="0 0 109 22" fill="none" xmlns="http://www.w3.org/2000/svg">
<g clip-path="url(#clip0_208_2)">
<path d="M108.807 16.7057V19.3783H106.565C104.173 19.3031 102.894 18.0112 102.894 15.5846V9.4806H101.329V7.13604H102.894V4.51123H106.203V7.1087H108.732V9.44642H106.203V15.2565C106.203 16.0426 106.36 16.6715 107.57 16.6715L108.807 16.7057Z" fill="#111111"/>
<path d="M88.1429 13.2813V13.1036C88.1071 12.3174 88.2268 11.5319 88.4952 10.7921C88.7636 10.0522 89.1753 9.37266 89.7068 8.79226C90.2383 8.21187 90.8791 7.74207 91.5925 7.4098C92.3059 7.07753 93.0779 6.88932 93.8642 6.85596C94.0214 6.85596 94.1854 6.85596 94.3427 6.85596C97.4664 6.85596 100.207 8.67418 100.207 13.0079V13.9306H91.5265C91.6153 15.9266 92.6953 17.0544 94.5135 17.0544C96.0789 17.0544 96.8102 16.3709 97.0221 15.3729H100.146C99.7632 17.9772 97.6852 19.4263 94.3973 19.4263C90.7882 19.399 88.1429 17.116 88.1429 13.2813ZM96.9538 11.839C96.8376 10.0208 95.9216 9.14583 94.329 9.14583C92.7363 9.14583 91.8204 10.1301 91.5948 11.839H96.9538Z" fill="#111111"/>
<path d="M74.6361 13.2813V13.1036C74.6003 12.3185 74.7195 11.534 74.9871 10.7951C75.2546 10.0561 75.6651 9.37714 76.1952 8.79692C76.7252 8.21671 77.3644 7.74664 78.0763 7.4136C78.7881 7.08056 79.5586 6.89107 80.3437 6.85596C80.5009 6.85596 80.665 6.85596 80.8222 6.85596C83.946 6.85596 86.6938 8.67418 86.6938 13.0079V13.9306H78.0196C78.1085 15.9266 79.1885 17.0544 81.0067 17.0544C82.572 17.0544 83.3034 16.3709 83.5153 15.3729H86.6391C86.2495 17.9772 84.1715 19.4263 80.8837 19.4263C77.2814 19.399 74.6361 17.116 74.6361 13.2813ZM83.447 11.839C83.3308 10.0208 82.4148 9.14583 80.8222 9.14583C79.2295 9.14583 78.3409 10.1575 78.088 11.8322L83.447 11.839Z" fill="#111111"/>
<path d="M55.6816 7.10889H59.1814L61.3209 15.2157L63.6654 7.10889H66.3996L68.5186 15.2157L70.7743 7.10889H73.9801L70.1796 19.1529H66.8986L64.848 11.5929L62.6538 19.1529H59.3318L55.6816 7.10889Z" fill="#111111"/>
<path d="M44.5605 15.3661H47.6843C47.8279 16.4529 48.3679 17.0749 49.8033 17.0749C51.0884 17.0749 51.6831 16.5896 51.6831 15.7625C51.6831 14.9354 50.9995 14.5868 49.2497 14.3408C46.0438 13.8554 44.8066 12.9327 44.8066 10.5813C44.8066 8.07266 47.1033 6.82861 49.5914 6.82861C52.2641 6.82861 54.2805 7.79925 54.5676 10.5676H51.4849C51.4652 10.3536 51.4033 10.1456 51.3028 9.95563C51.2023 9.76567 51.0651 9.59751 50.8992 9.46086C50.7333 9.32421 50.542 9.22179 50.3363 9.1595C50.1306 9.09722 49.9146 9.07631 49.7008 9.09798H49.5983C48.5183 9.09798 47.8894 9.6038 47.8894 10.342C47.8894 11.0803 48.4704 11.4015 50.234 11.6544C53.2279 12.1056 54.9026 12.8643 54.9026 15.4413C54.9026 18.0182 53.0092 19.399 49.8375 19.399C46.6659 19.399 44.6494 17.9704 44.5605 15.3661Z" fill="#111111"/>
<path d="M31.2861 7.10892H34.5945V9.01601C34.9674 8.31602 35.5334 7.7378 36.2253 7.35005C36.9172 6.96231 37.7058 6.78135 38.4975 6.82867C40.8421 6.82867 42.5441 8.25728 42.5441 11.5178V19.1803H39.2768V11.9963C39.2768 10.3626 38.6411 9.58335 37.1646 9.58335C36.8526 9.55618 36.5382 9.59092 36.2396 9.68556C35.941 9.7802 35.664 9.93289 35.4246 10.1349C35.1851 10.3368 34.9879 10.5841 34.8443 10.8625C34.7007 11.1408 34.6135 11.4448 34.5877 11.757C34.5706 11.9023 34.5706 12.0492 34.5877 12.1945V19.153H31.2861V7.10892Z" fill="#111111"/>
<path d="M24.9015 4.08097C24.8895 3.75112 24.9757 3.42512 25.149 3.14426C25.3224 2.86339 25.5753 2.64029 25.8755 2.5032C26.1758 2.36611 26.51 2.32119 26.8358 2.37414C27.1616 2.42708 27.4643 2.5755 27.7057 2.80062C27.9471 3.02573 28.1163 3.31741 28.1918 3.63872C28.2674 3.96004 28.2459 4.29654 28.13 4.60563C28.0142 4.91471 27.8093 5.18248 27.5412 5.37504C27.2731 5.56759 26.9539 5.67626 26.624 5.6873H26.5625C26.3578 5.70026 26.1525 5.67267 25.9584 5.60611C25.7643 5.53954 25.5853 5.43532 25.4317 5.29942C25.278 5.16351 25.1526 4.9986 25.0628 4.81414C24.973 4.62969 24.9205 4.42931 24.9083 4.22452C24.9026 4.17689 24.9004 4.12892 24.9015 4.08097ZM24.9015 7.10908H28.244V19.1531H24.9152L24.9015 7.10908Z" fill="#111111"/>
<path d="M12.3037 2.69336H22.8713V5.61209H16.0359V9.96627H21.4495V12.7756H16.029V19.1531H12.3037V2.69336Z" fill="#111111"/>
<path d="M5.9264 8.07949C5.9264 9.11164 5.9264 10.3694 4.50463 10.882C5.96058 11.381 5.9264 12.4405 5.9264 13.5478V17.6491C5.9264 18.4284 6.24083 18.9 6.80134 19.0162C6.9245 19.0578 7.05425 19.0763 7.18412 19.0709H8.55121V21.8051H6.29551C3.88944 21.8051 2.56336 20.438 2.56336 17.902V13.0489C2.5463 12.7997 2.43644 12.566 2.25547 12.3939C2.07451 12.2218 1.83559 12.1238 1.58589 12.1192H0.998047V9.72H1.58589C1.84057 9.71664 2.08418 9.61536 2.26618 9.43718C2.44818 9.259 2.5546 9.01759 2.56336 8.76304V3.84152C2.56336 1.34658 3.8621 0 6.29551 0H8.57172V2.69316H7.20463C7.0746 2.69354 6.94544 2.7143 6.82184 2.75468C6.26134 2.89823 5.94691 3.36304 5.94691 4.12177L5.9264 8.07949Z" fill="#111111"/>
</g>
<defs>
<clipPath id="clip0_208_2">
<rect width="108" height="21.8734" fill="white" transform="translate(0.998047)"/>
</clipPath>
</defs>
</svg>
